<svg id="Layer_1" data-name="Layer 1" xmlns="http://www.w3.org/2000/svg" viewBox="0 0 95.15 106.32"><defs><style>.cls-1{fill:#231f20}</style></defs><path d="M184.38 579.53c-.09-2.39-.29-4.77-.44-7.15-.24-4-.47-8-.73-12.06-.34-5.47-.71-10.94-1.05-16.42-.26-4.13-.48-8.26-.74-12.39q-.53-8.49-1.07-17c-.21-3.31-.43-6.62-.68-9.93a3.31 3.31 0 00-2.78-3 13.53 13.53 0 00-2-.18h-14.57c-1.47 0-1.47 0-1.47-1.5v-3.25a16.77 16.77 0 00-6.76-13.78c-7.82-6.12-16.49-6.95-25.52-3.12a18.69 18.69 0 00-11.25 12.58 26.08 26.08 0 00-.53 7.68c0 1.06-.28 1.43-1.38 1.42-4.89-.05-9.79 0-14.68 0a12 12 0 00-1.89.16 3.36 3.36 0 00-2.89 3.1c-.19 2.61-.32 5.22-.48 7.82q-.34 5.81-.7 11.62c-.36 5.62-.73 11.24-1.08 16.86-.25 3.94-.47 7.89-.72 11.84q-.52 8.65-1.09 17.3c-.18 2.83-.28 5.67-.58 8.48-.38 3.49 1 5.16 4.51 5.16h86.4c2.91.04 4.27-1.33 4.17-4.24zm-62.76-79.43c.09-1.41 0-2.84.1-4.25.34-4.07 2.64-6.86 6-8.94 6.68-4.17 16.41-3 21.52 2.7a10.24 10.24 0 012.77 7.13c0 1.2-.05 2.4 0 3.59 0 .9-.34 1.15-1.19 1.15h-27.78c-1.04.02-1.5-.27-1.42-1.38zM176 577H97.76c-1.4 0-1.37 0-1.29-1.38.25-4.24 2.56-41.26 2.73-44.06q.54-8.37 1.07-16.75c.11-1.71.24-3.42.27-5.14 0-.85.25-1.19 1.15-1.19h12c.83 0 1.12.29 1.1 1.11v5.61c0 2.26 1.42 3.72 3.47 3.7s3.37-1.49 3.38-3.76v-5.61c0-.77.28-1.05 1-1.05h28.24c.85 0 1.1.33 1.09 1.13v5.61c0 2.25 1.43 3.71 3.49 3.68a3.35 3.35 0 003.36-3.67v-5.6c0-.79.2-1.16 1.06-1.15h12.11c.75 0 1 .26 1.08 1 .35 6.19.74 12.37 1.12 18.55.45 7.22 2.75 43.34 3.09 47.87.11 1.15-.55 1.1-1.28 1.1z" transform="translate(-89.24 -477.49)" id="QTWM2k"/><path class="cls-1" d="M122.11 552.91q0 4.43-2.87 6.6a12.49 12.49 0 01-7.71 2.17 19.56 19.56 0 01-7.53-1.18c-.72-.3-1-.74-.91-1.31l.68-2.89c.15-.79.61-1 1.36-.73a15.7 15.7 0 005.52.95c3.64 0 5.47-1.23 5.47-3.7a3.66 3.66 0 00-1.18-2.77 20.55 20.55 0 00-4-2.64l-2.84-1.71a12.81 12.81 0 01-2.35-1.88 7.62 7.62 0 01-1.76-2.76 10.24 10.24 0 01-.59-3.57q0-4.31 2.46-6.42t7.62-2.13A18.65 18.65 0 01120 530c.72.27 1 .69.86 1.26l-.68 2.85c-.15.73-.6 1-1.36.73a14.82 14.82 0 00-4.79-.73 6.1 6.1 0 00-3.55.81 3 3 0 00-1.11 2.62 3.67 3.67 0 001.23 2.78 17.91 17.91 0 003.71 2.51l3.07 1.89a14.63 14.63 0 012.36 1.87 6.92 6.92 0 011.8 2.75 10.7 10.7 0 01.57 3.57zM144.94 544.77v15.51a.88.88 0 01-1 1h-3.62c-.63 0-1-.33-1-1v-14.43a5.4 5.4 0 00-.77-3.19 3 3 0 00-2.55-1.06 3.78 3.78 0 00-3.21 1.43 6.23 6.23 0 00-1.08 3.86v13.39a.88.88 0 01-1 1h-3.62a.88.88 0 01-1-1v-29.89c0-.63.33-.95 1-.95h3.62c.66 0 1 .32 1 .95v9.36q1.8-3.16 6.24-3.17a6.37 6.37 0 015.26 2.15 9.36 9.36 0 011.73 6.04zM149.42 553.72V538a.88.88 0 011-1H154a.88.88 0 011 1v14.42a5.73 5.73 0 00.73 3.21 2.79 2.79 0 002.53 1.09 3.73 3.73 0 003.09-1.38 5.93 5.93 0 001.11-3.82V538a.88.88 0 011-1H167a.88.88 0 011 1v22.25a.88.88 0 01-1 1h-3.3c-.66 0-1-.28-1.09-.86l-.13-2a6.39 6.39 0 01-6.06 3.26q-7 .03-7-7.93z" transform="translate(-89.24 -477.49)"/></svg>